<svg xmlns="http://www.w3.org/2000/svg" viewBox="2750 2550 1550 1350">
<style>path { fill: none; stroke: white; stroke-width: 35; stroke-linecap: round; stroke-linejoin: round; }</style>
<path d="M 3524 3585 L 3522 3590 L 3521 3597 L 3520 3600 L 3518 3603 L 3517 3610 L 3514 3616 L 3514 3619 L 3512 3625 L 3510 3628 L 3509 3634 L 3502 3651 L 3501 3657 L 3498 3663 L 3497 3669 L 3490 3686 L 3489 3692 L 3487 3695 L 3486 3698 L 3485 3704 L 3481 3714 L 3483 3710 L 3485 3704 L 3486 3698 L 3497 3669 L 3498 3663 L 3505 3646 L 3506 3640 L 3517 3611 L 3518 3604 L 3520 3601 L 3521 3598 L 3521 3594 L 3522 3590 L 3524 3587 " />
<path d="M 3475 3555 L 3467 3554 L 3461 3556 L 3451 3566 L 3443 3578 L 3438 3587 L 3437 3591 L 3425 3614 L 3416 3630 L 3408 3642 L 3406 3647 L 3421 3622 L 3427 3611 L 3438 3588 L 3444 3577 L 3449 3569 L 3452 3565 L 3460 3557 L 3464 3555 L 3467 3554 " />
<path d="M 3108 2916 L 3111 2917 L 3112 2919 L 3114 2924 L 3117 2927 L 3119 2931 L 3120 2935 L 3120 2942 L 3119 2946 L 3117 2949 L 3115 2951 L 3111 2953 L 3106 2954 L 3098 2953 L 3095 2952 L 3091 2950 L 3087 2946 L 3085 2943 L 3084 2936 L 3084 2930 L 3085 2924 L 3087 2922 L 3095 2918 " />
<path d="M 3125 2907 L 3123 2908 L 3120 2908 L 3115 2910 L 3112 2912 L 3109 2916 L 3107 2917 L 3095 2918 L 3090 2920 L 3086 2923 L 3078 2923 L 3077 2924 L 3071 2925 L 3077 2924 L 3078 2923 L 3085 2924 L 3085 2929 L 3084 2930 L 3084 2936 L 3085 2943 L 3087 2945 L 3087 2947 L 3090 2950 L 3098 2953 L 3107 2954 L 3111 2953 L 3114 2952 L 3118 2948 L 3119 2946 L 3120 2942 L 3120 2935 L 3119 2930 L 3118 2928 L 3114 2924 L 3110 2916 L 3112 2914 L 3112 2913 L 3115 2910 " />
<path d="M 2966 2817 L 2968 2817 L 2973 2819 L 2975 2821 L 2979 2830 L 2982 2841 L 2983 2846 L 2983 2853 L 2984 2859 L 2987 2867 L 2990 2871 L 2992 2875 L 2993 2879 L 2993 2888 L 2989 2892 L 2985 2892 L 2981 2895 L 2978 2888 L 2975 2884 L 2971 2880 L 2969 2876 L 2966 2872 L 2962 2868 L 2957 2861 L 2955 2857 L 2954 2854 L 2953 2847 L 2953 2841 L 2954 2835 L 2959 2826 L 2960 2821 L 2962 2819 " />
<path d="M 3974 2785 L 3974 2788 L 3971 2795 L 3970 2799 L 3969 2808 L 3966 2817 L 3965 2822 L 3965 2827 L 3962 2836 L 3961 2841 L 3961 2846 L 3958 2856 L 3956 2868 L 3956 2875 L 3955 2882 L 3954 2883 L 3954 2887 L 3954 2883 L 3955 2882 L 3956 2876 L 3956 2869 L 3957 2862 L 3962 2836 L 3965 2827 L 3965 2822 L 3966 2817 L 3969 2808 L 3970 2799 L 3971 2795 L 3974 2788 " />
<path d="M 4037 2715 L 4037 2717 L 4038 2718 L 4038 2722 L 4040 2726 L 4040 2750 L 4039 2763 L 4037 2771 L 4036 2788 L 4033 2801 L 4032 2816 L 4029 2828 L 4029 2834 L 4028 2840 L 4026 2845 L 4025 2856 L 4021 2869 L 4025 2856 L 4026 2845 L 4028 2840 L 4029 2834 L 4029 2828 L 4032 2816 L 4033 2801 L 4036 2788 L 4037 2771 L 4039 2763 L 4040 2750 L 4040 2726 L 4038 2718 L 4037 2717 " />
<path d="M 4082 2598 L 4122 2633 L 4145 2673 L 4157 2768 L 4141 2846 L 4081 3019 L 4087 3070 L 4129 3145 L 4137 3236 L 4125 3290 L 4078 3377 L 4076 3425 L 4003 3482 L 3899 3481 L 3848 3504 L 3827 3533 L 3815 3612 L 3799 3648 L 3706 3727 L 3600 3795 L 3519 3832 L 3436 3852 L 3364 3852 L 3310 3832 L 3281 3808 L 3252 3761 L 3241 3727 L 3242 3691 L 3259 3658 L 3357 3551 L 3431 3450 L 3464 3382 L 3465 3322 L 3400 3199 L 3354 3158 L 3288 3121 L 3246 3111 L 3174 3154 L 3121 3160 L 3055 3136 L 2982 3065 L 2945 3062 L 2905 3092 L 2871 3090 L 2869 3080 L 2901 3065 L 2914 3049 L 2909 3032 L 2885 3031 L 2829 3058 L 2812 3057 L 2825 3032 L 2851 3013 L 2927 2992 L 2975 2936 L 2981 2896 L 3011 2891 L 3034 2868 L 3035 2847 L 2991 2753 L 2996 2722 L 3014 2712 L 3037 2723 L 3061 2788 L 3082 2810 L 3092 2803 L 3088 2717 L 3109 2702 L 3124 2709 L 3152 2784 L 3171 2746 L 3192 2735 L 3198 2779 L 3190 2836 L 3206 2868 L 3284 2864 L 3349 2885 L 3435 2993 L 3512 3060 L 3621 3102 L 3700 3064 L 3778 3000 L 3819 2953 L 3898 2831 L 3942 2678 L 3964 2631 L 3991 2607 L 4028 2591 L 4062 2589 " />
<path d="M 4076 2594 L 4017 2594 L 3964 2631 L 3898 2831 L 3819 2953 L 3700 3064 L 3621 3102 L 3507 3056 L 3430 2987 L 3351 2886 L 3284 2864 L 3203 2865 L 3190 2836 L 3192 2735 L 3174 2742 L 3153 2776 L 3125 2710 L 3096 2706 L 3092 2803 L 3082 2810 L 3063 2791 L 3037 2723 L 3014 2712 L 2995 2723 L 2991 2753 L 3036 2850 L 3033 2869 L 2999 2893 L 2975 2821 L 2961 2819 L 2954 2855 L 2981 2895 L 2976 2934 L 2925 2993 L 2851 3013 L 2812 3057 L 2909 3032 L 2913 3050 L 2870 3079 L 2870 3090 L 2905 3092 L 2945 3062 L 2982 3065 L 3052 3134 L 3121 3160 L 3169 3156 L 3246 3111 L 3283 3119 L 3398 3197 L 3465 3322 L 3465 3378 L 3430 3451 L 3242 3691 L 3252 3761 L 3311 3833 L 3364 3852 L 3436 3852 L 3527 3829 L 3625 3781 L 3801 3646 L 3834 3519 L 3899 3481 L 3926 3485 L 3933 3569 L 3872 3645 L 3864 3683 L 3879 3696 L 3865 3687 L 3867 3656 L 3930 3576 L 3956 3592 L 3969 3623 L 3965 3666 L 3943 3700 L 3965 3666 L 3969 3623 L 3956 3592 L 3929 3575 L 3926 3486 L 4003 3482 L 4077 3426 L 4134 3481 L 4191 3489 L 4204 3501 L 4166 3596 L 4164 3645 L 4166 3596 L 4206 3503 L 4257 3555 L 4269 3616 L 4264 3571 L 4232 3519 L 4191 3489 L 4133 3480 L 4072 3413 L 4137 3236 L 4129 3144 L 4087 3070 L 4081 3019 L 4157 2768 L 4140 2662 " />
</svg>